<?xml version="1.0" encoding="UTF-8" standalone="no"?>
<!DOCTYPE svg PUBLIC "-//W3C//DTD SVG 1.1//EN"
 "http://www.w3.org/Graphics/SVG/1.1/DTD/svg11.dtd">
<!-- Generated by graphviz version 2.43.0 (0)
 -->
<!-- Title: %3 Pages: 1 -->
<svg width="268pt" height="230pt"
 viewBox="0.00 0.00 268.11 230.01" xmlns="http://www.w3.org/2000/svg" xmlns:xlink="http://www.w3.org/1999/xlink">
<g id="graph0" class="graph" transform="scale(1 1) rotate(0) translate(4 226.01)">
<title>%3</title>
<polygon fill="white" stroke="transparent" points="-4,4 -4,-226.01 264.11,-226.01 264.11,4 -4,4"/>
<!-- 0 -->
<g id="node1" class="node">
<title>0</title>
<ellipse fill="#c0c0c0" stroke="black" cx="130.05" cy="-18" rx="37.09" ry="18"/>
<text text-anchor="middle" x="130.05" y="-14.3" font-family="Times,serif" font-size="14.00">0.616</text>
</g>
<!-- 1 -->
<g id="node2" class="node">
<title>1</title>
<ellipse fill="#c06868" stroke="black" cx="223.06" cy="-111.01" rx="37.09" ry="18"/>
<text text-anchor="middle" x="223.06" y="-107.31" font-family="Times,serif" font-size="14.00">0.887</text>
</g>
<!-- 0&#45;&gt;1 -->
<g id="edge1" class="edge">
<title>0&#45;&gt;1</title>
<path fill="none" stroke="red" d="M140.64,-35.67C153.34,-50.99 174.88,-73.06 192.8,-89.41"/>
<polygon fill="red" stroke="red" points="190.93,-92.43 200.73,-96.47 195.59,-87.21 190.93,-92.43"/>
<text text-anchor="middle" x="149.06" y="-70.84" font-family="Times,serif" font-size="14.00">0.000</text>
</g>
<!-- 2 -->
<g id="node3" class="node">
<title>2</title>
<ellipse fill="#c04040" stroke="black" cx="130.05" cy="-204.01" rx="37.09" ry="18"/>
<text text-anchor="middle" x="130.05" y="-200.31" font-family="Times,serif" font-size="14.00">0.865</text>
</g>
<!-- 0&#45;&gt;2 -->
<g id="edge2" class="edge">
<title>0&#45;&gt;2</title>
<path fill="none" stroke="red" d="M125.84,-36.17C122.74,-68.76 122.48,-137.34 125.06,-175.98"/>
<polygon fill="red" stroke="red" points="121.58,-176.35 125.86,-186.04 128.55,-175.79 121.58,-176.35"/>
<text text-anchor="middle" x="102.8" y="-114.95" font-family="Times,serif" font-size="14.00">0.000</text>
</g>
<!-- 3 -->
<g id="node4" class="node">
<title>3</title>
<ellipse fill="#c07979" stroke="black" cx="37.05" cy="-111.01" rx="37.09" ry="18"/>
<text text-anchor="middle" x="37.05" y="-107.31" font-family="Times,serif" font-size="14.00">0.652</text>
</g>
<!-- 0&#45;&gt;3 -->
<g id="edge3" class="edge">
<title>0&#45;&gt;3</title>
<path fill="none" stroke="red" d="M107.79,-32.48C91.3,-46.75 69.29,-68.64 54.16,-85.74"/>
<polygon fill="red" stroke="red" points="51.19,-83.82 47.34,-93.69 56.5,-88.38 51.19,-83.82"/>
<text text-anchor="middle" x="55.99" y="-65.83" font-family="Times,serif" font-size="14.00">0.384</text>
</g>
<!-- 1&#45;&gt;0 -->
<g id="edge4" class="edge">
<title>1&#45;&gt;0</title>
<path fill="none" stroke="red" d="M212.48,-93.34C199.77,-78.01 178.24,-55.95 160.32,-39.6"/>
<polygon fill="red" stroke="red" points="162.18,-36.57 152.38,-32.54 157.52,-41.8 162.18,-36.57"/>
<text text-anchor="middle" x="163.05" y="-50.76" font-family="Times,serif" font-size="14.00">0.006</text>
</g>
<!-- 1&#45;&gt;2 -->
<g id="edge5" class="edge">
<title>1&#45;&gt;2</title>
<path fill="none" stroke="red" d="M200.79,-125.49C184.31,-139.76 162.29,-161.64 147.16,-178.74"/>
<polygon fill="red" stroke="red" points="144.19,-176.83 140.34,-186.7 149.51,-181.39 144.19,-176.83"/>
<text text-anchor="middle" x="148.99" y="-158.83" font-family="Times,serif" font-size="14.00">0.020</text>
</g>
<!-- 1&#45;&gt;3 -->
<g id="edge6" class="edge">
<title>1&#45;&gt;3</title>
<path fill="none" stroke="red" d="M187.63,-105.57C157.86,-103.99 115.11,-103.83 82.76,-105.1"/>
<polygon fill="red" stroke="red" points="82.49,-101.61 72.66,-105.56 82.81,-108.6 82.49,-101.61"/>
<text text-anchor="middle" x="109.6" y="-93.06" font-family="Times,serif" font-size="14.00">0.087</text>
</g>
<!-- 2&#45;&gt;0 -->
<g id="edge7" class="edge">
<title>2&#45;&gt;0</title>
<path fill="none" stroke="red" d="M134.26,-185.84C137.36,-153.25 137.62,-84.68 135.05,-46.03"/>
<polygon fill="red" stroke="red" points="138.53,-45.66 134.24,-35.97 131.55,-46.22 138.53,-45.66"/>
<text text-anchor="middle" x="157.3" y="-114.67" font-family="Times,serif" font-size="14.00">0.000</text>
</g>
<!-- 2&#45;&gt;1 -->
<g id="edge8" class="edge">
<title>2&#45;&gt;1</title>
<path fill="none" stroke="red" d="M152.32,-189.53C168.81,-175.26 190.82,-153.37 205.95,-136.27"/>
<polygon fill="red" stroke="red" points="208.92,-138.19 212.77,-128.32 203.6,-133.63 208.92,-138.19"/>
<text text-anchor="middle" x="204.12" y="-163.78" font-family="Times,serif" font-size="14.00">0.008</text>
</g>
<!-- 2&#45;&gt;3 -->
<g id="edge9" class="edge">
<title>2&#45;&gt;3</title>
<path fill="none" stroke="red" d="M119.47,-186.34C106.77,-171.02 85.23,-148.95 67.31,-132.61"/>
<polygon fill="red" stroke="red" points="69.17,-129.58 59.37,-125.54 64.52,-134.81 69.17,-129.58"/>
<text text-anchor="middle" x="70.05" y="-143.77" font-family="Times,serif" font-size="14.00">0.126</text>
</g>
<!-- 3&#45;&gt;0 -->
<g id="edge10" class="edge">
<title>3&#45;&gt;0</title>
<path fill="none" stroke="red" d="M59.31,-96.52C75.8,-82.25 97.81,-60.37 112.94,-43.27"/>
<polygon fill="red" stroke="red" points="115.91,-45.18 119.76,-35.31 110.6,-40.62 115.91,-45.18"/>
<text text-anchor="middle" x="111.11" y="-55.78" font-family="Times,serif" font-size="14.00">0.058</text>
</g>
<!-- 3&#45;&gt;1 -->
<g id="edge11" class="edge">
<title>3&#45;&gt;1</title>
<path fill="none" stroke="red" d="M72.47,-116.44C102.24,-118.02 144.99,-118.18 177.34,-116.91"/>
<polygon fill="red" stroke="red" points="177.62,-120.4 187.45,-116.45 177.3,-113.41 177.62,-120.4"/>
<text text-anchor="middle" x="119.75" y="-106.56" font-family="Times,serif" font-size="14.00">0.077</text>
</g>
<!-- 3&#45;&gt;2 -->
<g id="edge12" class="edge">
<title>3&#45;&gt;2</title>
<path fill="none" stroke="red" d="M47.63,-128.67C60.33,-144 81.87,-166.06 99.79,-182.41"/>
<polygon fill="red" stroke="red" points="97.93,-185.44 107.72,-189.48 102.58,-180.21 97.93,-185.44"/>
<text text-anchor="middle" x="56.05" y="-163.85" font-family="Times,serif" font-size="14.00">0.214</text>
</g>
</g>
</svg>